# xmcd
#
# Track frame offsets:
#	150
#	13659
#	25795
#	44380
#	58920
#	72747
#	96673
#	107944
#	127253
#	140505
#	152250
#	166179
#
# Disc length: 2394 seconds
# Revision: 3
# Processed by: cddbd v1.5.2PL0 Copyright (c) Steve Scherf et al.
# Submitted via: dBpowerAMP V12.0
#
DISCID=ae09580c
DTITLE=Highway 40 - The Only Way
DYEAR=2001
DGENRE=Country
TTITLE0=Two More Bottles Of Wine
TTITLE1=Woman Of The World
TTITLE2=The Only Way
TTITLE3=Highway Robbery
TTITLE4=Carmen
TTITLE5=Till I Gain Control Again
TTITLE6=I've Come Awful Close
TTITLE7=Forbidden Love
TTITLE8=What Ever Way The Wind Blows
TTITLE9=My O My
TTITLE10=Soon
TTITLE11=Ces't La Vie
EXTD=
EXTT0=
EXTT1=
EXTT2=
EXTT3=
EXTT4=
EXTT5=
EXTT6=
EXTT7=
EXTT8=
EXTT9=
EXTT10=
EXTT11=
PLAYORDER=
